<svg id="Capa_1" enable-background="new 0 0 512 512" height="512" viewBox="0 0 512 512" width="512" xmlns="http://www.w3.org/2000/svg"><g><g><path d="m241 396.594v115.406h15l7.5-115.406z" fill="#525264"/><g><path d="m256 396.594h15v115.406h-15z" fill="#3a3c4c"/></g></g><g><path d="m50.203 205.797c0 113.658 92.138 205.797 205.797 205.797l34.943-202.44-34.943-209.154c-113.659 0-205.797 92.138-205.797 205.797z" fill="#7cdb80"/></g><g><g><g><path d="m256 0v411.594c113.659 0 205.797-92.139 205.797-205.797 0-113.659-92.138-205.797-205.797-205.797z" fill="#5fa88e"/></g></g><g><g><path d="m185.1 282.16h-5.027c-30.87 0-55.984-25.114-55.984-55.984v-40.758c0-30.87 25.114-55.984 55.984-55.984h61.012v30h-61.012c-14.328 0-25.984 11.656-25.984 25.984v40.758c0 14.328 11.657 25.984 25.984 25.984h5.027c14.328 0 25.984-11.656 25.984-25.984v-5.379h-28.498v-30h58.498v35.379c0 30.87-25.114 55.984-55.984 55.984z" fill="#f4f4f7"/></g><g><path d="m331.927 282.16c-30.87 0-55.984-25.114-55.984-55.984v-40.758c0-30.87 25.114-55.984 55.984-55.984s55.984 25.114 55.984 55.984v40.758c0 30.87-25.114 55.984-55.984 55.984zm0-122.726c-14.328 0-25.984 11.656-25.984 25.984v40.758c0 14.328 11.656 25.984 25.984 25.984s25.984-11.656 25.984-25.984v-40.758c0-14.328-11.656-25.984-25.984-25.984z" fill="#cecedc"/></g></g></g></g></svg>